# xmcd CD database file
#
# Track frame offsets:
#	150
#	15587
#	36022
#	56422
#	73119
#	88132
#	105938
#	127034
#	144891
#	166190
#	190626
#
# Disc length: 2849 seconds
#
# Revision: 2
# Processed by: cddbd v1.5.2PL0 Copyright (c) Steve Scherf et al.
# Submitted via: CDex 1.70beta3
#
DISCID=860b1f0b
DTITLE=EARTHSHAKER - AIM
DYEAR=2007
DGENRE=J-Metal
TTITLE0=TO・BI・RA
TTITLE1=The Same
TTITLE2=遥か
TTITLE3=Sully
TTITLE4=情熱の華
TTITLE5=吐息
TTITLE6=Tomorrow
TTITLE7=志
TTITLE8=陽炎
TTITLE9=STARS HIGHWAY
TTITLE10=a wish
EXTD=YEAR: 2007
EXTT0=
EXTT1=
EXTT2=
EXTT3=
EXTT4=
EXTT5=
EXTT6=
EXTT7=
EXTT8=
EXTT9=
EXTT10=
PLAYORDER=
